<?xml version="1.0" encoding="utf-8"?>
<!-- Uploaded to: SVG Repo, www.svgrepo.com, Generator: SVG Repo Mixer Tools -->
<svg width="800px" height="800px" viewBox="0 0 1024 1024" class="icon"  version="1.1" xmlns="http://www.w3.org/2000/svg"><path d="M965.312 620.288a20.096 20.096 0 0 1-20.16 20.16H89.6a20.096 20.096 0 0 1-20.16-20.16V411.328c0-11.136 9.024-20.096 20.16-20.096h855.488c11.2 0 20.16 9.024 20.16 20.096v208.96z" fill="#358BCB" /><path d="M155.008 344h724.672v328.448H155.008z" fill="#4EAEE3" /><path d="M965.312 634.624c0 3.2-9.024 5.888-20.16 5.888H89.6c-11.2 0-20.16-2.688-20.16-5.888v-60.608c0-3.2 9.024-5.888 20.16-5.888h855.488c11.2 0 20.16 2.688 20.16 5.888v60.608z" fill="#F5BB1B" /><path d="M140.8 588.288h32.576v32.576H140.8zM206.464 588.288h32.64v32.576h-32.64zM272.128 588.288h32.704v32.576h-32.704zM337.856 588.288h32.576v32.576h-32.576zM666.304 588.288h32.704v32.576h-32.704zM732.032 588.288h32.64v32.576h-32.64zM797.76 588.288h32.576v32.576h-32.576zM863.36 588.288H896v32.576h-32.64zM403.584 588.288h32.576v32.576h-32.576zM469.248 588.288h32.64v32.576h-32.64zM534.848 588.288h32.704v32.576h-32.704zM600.64 588.288h32.576v32.576h-32.576z" fill="#775548" /></svg>