<?xml version="1.0" encoding="utf-8"?>
<!-- Generator: Adobe Illustrator 13.0.2, SVG Export Plug-In . SVG Version: 6.00 Build 14948)  -->
<!DOCTYPE svg PUBLIC "-//W3C//DTD SVG 1.1 Tiny//EN" "http://www.w3.org/Graphics/SVG/1.1/DTD/svg11-tiny.dtd">
<svg version="1.1" baseProfile="tiny" id="Ebene_1" xmlns="http://www.w3.org/2000/svg" xmlns:xlink="http://www.w3.org/1999/xlink"
	 x="0px" y="0px" width="310.628px" height="446.818px" viewBox="0 0 310.628 446.818" xml:space="preserve">
<polygon fill-rule="evenodd" fill="#7F2971" stroke="#FAD382" stroke-width="6.742" stroke-miterlimit="2.6131" points="
	282.303,167.06 303.892,160.174 155.313,439.636 6.877,160.314 32.839,167.06 282.303,167.06 "/>
<polygon fill-rule="evenodd" fill="#FFFFFF" stroke="#FAD382" stroke-width="6.742" stroke-miterlimit="2.6131" points="
	155.313,304.555 4.777,154.656 155.313,4.757 305.851,154.656 155.313,304.555 "/>
<path fill-rule="evenodd" fill="#FFFFFF" d="M137.57,334.96l3.801-13.877l3.821,13.877H137.57L137.57,334.96z M149.241,349.714
	h11.284l-13.105-38.639h-11.85l-13.071,38.639h11.03l1.751-6.395h12.21L149.241,349.714L149.241,349.714z"/>
<path fill-rule="evenodd" fill="#FFFFFF" d="M183.777,333.905l9.456,3.135c-0.635,2.935-1.634,5.383-2.996,7.352
	c-1.365,1.967-3.055,3.451-5.068,4.453c-2.014,1-4.58,1.501-7.693,1.501c-3.801,0-6.898-0.61-9.291-1.829
	c-2.393-1.218-4.461-3.361-6.204-6.43c-1.741-3.069-2.612-6.995-2.612-11.785c0-6.382,1.533-11.287,4.598-14.717
	c3.063-3.428,7.406-5.142,13.027-5.142c4.385,0,7.832,0.983,10.342,2.954c2.51,1.968,4.382,4.99,5.615,9.07l-9.524,2.307
	c-0.335-1.157-0.687-2.004-1.055-2.541c-0.599-0.898-1.331-1.59-2.2-2.073c-0.871-0.481-1.846-0.726-2.914-0.726
	c-2.447,0-4.316,1.082-5.618,3.242c-0.983,1.604-1.478,4.127-1.478,7.559c0,4.256,0.586,7.171,1.761,8.75
	c1.175,1.58,2.815,2.369,4.917,2.369c2.051,0,3.602-0.638,4.653-1.907C182.544,338.175,183.304,336.327,183.777,333.905
	L183.777,333.905z"/>
<polygon fill-rule="evenodd" fill="#E2001A" points="146.036,356.034 172.703,356.034 172.703,364.396 156.9,364.396 156.9,371.14 
	170.374,371.14 170.374,378.939 156.9,378.939 156.9,394.675 146.036,394.675 146.036,356.034 "/>
<path fill-rule="evenodd" fill="#E2001A" d="M110.35,136.624c3.692,0,6.686-2.981,6.686-6.658c0-3.675-2.993-6.656-6.686-6.656
	s-6.686,2.981-6.686,6.656C103.664,133.643,106.657,136.624,110.35,136.624L110.35,136.624z"/>
<path fill="none" stroke="#FAD382" stroke-width="6.742" stroke-miterlimit="2.6131" d="M105.645,134.838l8.655-10.305
	 M110.914,130.154l-5.456-5.246"/>
<path fill-rule="evenodd" fill="#E2001A" d="M155.417,56.904c0,0,44.965,27.914,13.357,111.092c0,0,19.002-32.222,25.211-37.655
	l4.326,6.183c0,0-24.646,19.484-26.904,35.781c0,0,20.695-22.293,40.639-22.293c19.941,0,31.416,7.869,31.416,25.667
	c0,0,1.318,21.729-26.901,21.729c0,0-15.615-0.373-20.317,4.31c0,0-1.131-12.177,2.068-15.736c3.197-3.56,1.504-6.558-2.259-6.558
	c0,0-27.278,5.808-27.093,40.278c0,0,2.262,4.683,9.033,4.683c0,0-3.197,4.497-11.289,4.497c0,0,0.94,12.739,6.773,15.361
	c0,0-4.703-0.749-6.585-2.249c0,0-1.128,18.172-11.476,18.172h-0.104c-10.347,0-11.475-18.172-11.475-18.172
	c-1.882,1.5-6.585,2.249-6.585,2.249c5.832-2.622,6.773-15.361,6.773-15.361c-8.091,0-11.288-4.497-11.288-4.497
	c6.771,0,9.03-4.683,9.03-4.683c0.188-34.47-27.091-40.278-27.091-40.278c-3.763,0-5.456,2.998-2.257,6.558
	c3.197,3.56,2.069,15.736,2.069,15.736c-4.704-4.683-20.319-4.31-20.319-4.31c-28.221,0-26.902-21.729-26.902-21.729
	c0-17.798,11.475-25.667,31.417-25.667c19.941,0,40.638,22.293,40.638,22.293c-2.259-16.297-26.903-35.781-26.903-35.781
	l4.326-6.183c6.21,5.434,25.21,37.655,25.21,37.655C110.35,84.818,155.313,56.904,155.313,56.904H155.417L155.417,56.904z"/>
<path fill-rule="evenodd" fill="#E2001A" d="M200.382,136.624c-3.694,0-6.688-2.981-6.688-6.658c0-3.675,2.993-6.656,6.688-6.656
	c3.691,0,6.684,2.981,6.684,6.656C207.065,133.643,204.073,136.624,200.382,136.624L200.382,136.624z"/>
<path fill="none" stroke="#FAD382" stroke-width="6.742" stroke-miterlimit="2.6131" d="M205.083,134.838l-8.652-10.305
	 M199.815,130.154l5.459-5.246"/>
</svg>
